<?xml version="1.0" encoding="utf-8"?>
<!-- Generator: Adobe Illustrator 24.0.2, SVG Export Plug-In . SVG Version: 6.00 Build 0)  -->
<svg version="1.1" xmlns="http://www.w3.org/2000/svg" xmlns:xlink="http://www.w3.org/1999/xlink" x="0px" y="0px"
	 viewBox="0 0 181 476" style="enable-background:new 0 0 181 476;" xml:space="preserve">
<style type="text/css">
	.st0{fill:#050259;}
	.st1{display:none;}
	.st2{fill:#FF00E1;}
	.st3{fill:none;stroke:#FFFFFF;stroke-width:5;stroke-miterlimit:10;}
	.st4{display:none;fill:none;stroke:#FFFFFF;stroke-width:5;stroke-miterlimit:10;}
	.st5{fill:#FC3229;}
	.st6{fill:#310A90;}
	.st7{display:none;fill:#FC3229;}
</style>
<g id="Capa_3">
	<rect x="-2303" y="-292.5" class="st0" width="1920" height="1080"/>
</g>
<g id="Capa_1" class="st1">
</g>
<g id="Capa_4" class="st1">
</g>
<g id="Capa_18">
	<path class="st2" d="M-818.13,638.86c-16.03,1.06-34.83,0.19-44.24-12.84c-4.91-6.8-5.89-16.68-1.13-23.59
		c4.76-6.91,15.57-9.28,22.04-3.94c4.08,3.37,5.82,8.79,9.22,12.85c9.89,11.82,28.6,8.17,43.28,3.47
		c10.48-3.35,20.96-6.71,31.45-10.06c23.16-7.41,51.53,4.76,20.06,19.69C-760.98,635.6-792.58,637.18-818.13,638.86z"/>
</g>
<g id="Capa_2">
	<g>
		<polygon class="st3" points="150,10 8,296 94,260 8,474 160,203 72,238 		"/>
		<polygon class="st4" points="581,408 593,511 613,504 		"/>
		<polygon class="st4" points="607,395 734,343.5 715,370.5 		"/>
		<polygon class="st4" points="613,358 738,247.5 728,205.5 		"/>
		<polygon class="st4" points="-379,-5 -319,-87 -299,-72 		"/>
		<path class="st4" d="M-390,3c0,0-3-63-25-90c-11,8-28,24-28,24S-399-25-390,3z"/>
		<path class="st4" d="M-509-22l-3,18c0,0,71,25,111,16C-411,9-509-22-509-22z"/>
	</g>
	<path class="st5" d="M-1704.14,127.5h44.5c0,0,8.94-173.55-101.08-124.42c-5.91,2.64-13.33,9.44-16.45,15.12
		c-16.74,30.41-37.22,111.49,39.13,185.21c14.92,14.99,76.97,75.58,26.48,90.36c-5.85,1.71-12.16,0.9-17.39-2.25
		c-16.28-9.81-38.93-32.13-41.75-47.79c-16.46,8.26-47.72,36.32-47.72,36.32s55.78,70.18,114.6,71.32
		c21.79-4.11,73.28-10.98,64.15-90.12c-6.31-30.65-39.78-69.73-44.64-75.28c-0.38-0.43-0.77-0.83-1.19-1.21
		c-5.28-4.84-43.95-40.85-51.5-63.67c-0.26-0.78-0.54-1.53-0.89-2.27c-5.4-11.52-15.16-58.02,4.69-78.71
		c3.95-4.12,10-5.71,15.33-3.66C-1708.96,39.86-1702.25,94.52-1704.14,127.5z"/>
	<polygon class="st6" points="171,0 29,286 115,250 29,464 181,193 93,228 	"/>
	<path class="st5" d="M-1032.06,112.17c0,0,56.13,109.11-9.99,308.41c32.69,0.44,143.7,22.67,143.7,22.67s5.09-46.29,31.79-60.76
		c-26.98,7.12-116.36-9.68-116.36-9.68s13.64-65.45,15.86-80.47c15.56-0.4,61.31,7.31,61.31,7.31s1.31-32.51,21.31-41.09
		c-18.55,1.6-81.6-6.08-81.6-6.08l7.06-73.2l98.32,13.21l25.02-45.78C-835.63,146.71-987.26,128.79-1032.06,112.17z"/>
	<polygon class="st7" points="-846,401 -834,504 -814,497 	"/>
	<polygon class="st7" points="-820,388 -693,336.5 -712,363.5 	"/>
	<polygon class="st7" points="-814,351 -689,240.5 -699,198.5 	"/>
	<polygon class="st7" points="-1806,-12 -1746,-94 -1726,-79 	"/>
	<path class="st7" d="M-1817-4c0,0-3-63-25-90c-11,8-28,24-28,24S-1826-32-1817-4z"/>
	<path class="st7" d="M-1936-29l-3,18c0,0,71,25,111,16C-1838,2-1936-29-1936-29z"/>
	<g>
		<path d="M-1795.44-3.04c-24.55,1.74-48.15,14.21-63.42,33.51c-9.43,11.92-15.64,26.02-21.6,40c-3.31,7.76-6.54,16.84-2.56,24.28
			c1.81,3.38,4.89,5.88,8.09,7.99c7.79,5.15,17.93,8.51,26.4,4.59c8.33-3.85,12.4-13.58,13.08-22.72
			c0.68-9.15-1.25-18.29-1.27-27.46C-1836.78,32.85-1814.27,9.69-1795.44-3.04z"/>
		<path d="M-894.88,468.03c2.08-2.77,3.07-6.19,3.94-9.53c2.54-9.69,4.43-19.55,5.68-29.49c10.4,13.08,17.28,28.93,19.74,45.46
			c1.06,7.14,1.29,14.55-0.77,21.46c-4.3,14.43-18.07,24.45-32.59,28.44c-14.52,3.99-29.88,2.97-44.9,1.93
			c-4.19-0.29-8.54-0.63-12.21-2.69c-2.83-1.59-5.03-4.1-6.84-6.79c-7.14-10.6-8.61-24.79-3.78-36.63c0.58-1.41,1.28-2.85,2.49-3.79
			c1.16-0.9,2.64-1.23,4.08-1.5C-943.89,471.81-906.2,483.15-894.88,468.03z"/>
		<path d="M-1852.24,116.2c0.43-0.07,0.86-0.14,1.28-0.04c1.09,0.25,2.05,1.55,2.96,2.81c-0.95,4.05-3,6.53-5.02,8.29
			c-2.23,1.93-4.63,3.3-7.04,3.01c-0.8-0.09-1.63-0.39-2.29-1.33c-2.59-3.65-0.56-9.37,1.66-10.92
			C-1858.12,116.23-1854.95,116.65-1852.24,116.2z"/>
		<path d="M-1867.86,122.88c-0.52,2.45-2.76,4.3-5.19,4.82c-2.44,0.52-5-0.13-7.21-1.28c-5.58-2.9-9.25-9.2-9.04-15.53
			c0.04-1.26,0.22-2.54-0.06-3.77c-0.57-2.48-2.9-4.22-3.58-6.67c-0.07-0.24-0.11-0.52,0.05-0.71c0.13-0.16,0.36-0.2,0.56-0.21
			c3.73-0.33,7.37,1.54,10.08,4.14c3.43,3.28,5.05,8.04,8.41,11.27C-1871.38,117.31-1866.92,118.41-1867.86,122.88z"/>
		<path d="M-973.37,476.27c1.06-0.61,2.23-0.94,3.17-1.83s1.56-2.63,0.97-3.93c-0.43-0.96-1.34-1.34-2.18-1.58
			c-3.96-1.16-8.12-1.17-12.08-0.04c-1.53,0.44-3.08,1.07-4.28,2.38c-1.33,1.44-2.13,3.68-2.14,5.94c-0.02,5.52,4.69,9.27,8.64,8.33
			C-977.47,484.63-976.92,478.29-973.37,476.27z"/>
		<path d="M-993.99,501.38c0.04,1.38,0.12,2.78,0.52,4.11c1.06,3.52,4.5,6.2,8.19,6.38c9.47,0.47,12.5-13.04,7.79-19.54
			c-2.11-2.92-6.68-3.28-9.93-2.43C-992.9,491.32-994.12,496.36-993.99,501.38z"/>
	</g>
	<path class="st5" d="M-1786.44-4.04c-24.55,1.74-48.15,14.21-63.42,33.51c-9.43,11.92-15.64,26.02-21.6,40
		c-3.31,7.76-6.54,16.84-2.56,24.28c1.81,3.38,4.89,5.88,8.09,7.99c7.79,5.15,17.93,8.51,26.4,4.59
		c8.33-3.85,12.4-13.58,13.08-22.72c0.68-9.15-1.25-18.29-1.27-27.46C-1827.78,31.85-1805.27,8.69-1786.44-4.04z"/>
	<path class="st5" d="M-889.88,461.03c2.08-2.77,3.07-6.19,3.94-9.53c2.54-9.69,4.43-19.55,5.68-29.49
		c10.4,13.08,17.28,28.93,19.74,45.46c1.06,7.14,1.29,14.55-0.77,21.46c-4.3,14.43-18.07,24.45-32.59,28.44
		c-14.52,3.99-29.88,2.97-44.9,1.93c-4.19-0.29-8.54-0.63-12.21-2.69c-2.83-1.59-5.03-4.1-6.84-6.79
		c-7.14-10.6-8.61-24.79-3.78-36.63c0.58-1.41,1.28-2.85,2.49-3.79c1.16-0.9,2.64-1.23,4.08-1.5
		C-938.89,464.81-901.2,476.15-889.88,461.03z"/>
	<path class="st5" d="M-1843.24,115.2c0.43-0.07,0.86-0.14,1.28-0.04c1.09,0.25,2.05,1.55,2.96,2.81c-0.95,4.05-3,6.53-5.02,8.29
		c-2.23,1.93-4.63,3.3-7.04,3.01c-0.8-0.09-1.63-0.39-2.29-1.33c-2.59-3.65-0.56-9.37,1.66-10.92
		C-1849.12,115.23-1845.95,115.65-1843.24,115.2z"/>
	<path class="st5" d="M-1858.86,121.88c-0.52,2.45-2.76,4.3-5.19,4.82c-2.44,0.52-5-0.13-7.21-1.28c-5.58-2.9-9.25-9.2-9.04-15.53
		c0.04-1.26,0.22-2.54-0.06-3.77c-0.57-2.48-2.9-4.22-3.58-6.67c-0.07-0.24-0.11-0.52,0.05-0.71c0.13-0.16,0.36-0.2,0.56-0.21
		c3.73-0.33,7.37,1.54,10.08,4.14c3.43,3.28,5.05,8.04,8.41,11.27C-1862.38,116.31-1857.92,117.41-1858.86,121.88z"/>
	<path class="st5" d="M-968.37,469.27c1.06-0.61,2.23-0.94,3.17-1.83s1.56-2.63,0.97-3.93c-0.43-0.96-1.34-1.34-2.18-1.58
		c-3.96-1.16-8.12-1.17-12.08-0.04c-1.53,0.44-3.08,1.07-4.28,2.38c-1.33,1.44-2.13,3.68-2.14,5.94c-0.02,5.52,4.69,9.27,8.64,8.33
		C-972.47,477.63-971.92,471.29-968.37,469.27z"/>
	<path class="st5" d="M-988.99,494.38c0.04,1.38,0.12,2.78,0.52,4.11c1.06,3.52,4.5,6.2,8.19,6.38c9.47,0.47,12.5-13.04,7.79-19.54
		c-2.11-2.92-6.68-3.28-9.93-2.43C-987.9,484.32-989.12,489.36-988.99,494.38z"/>
</g>
<g id="mancha_6">
	<path class="st5" d="M-359.5,268.81c-22.82-19.75-46.35-39.92-74.78-50.03c-28.43-10.11-63.28-8.03-84.87,13.05
		c-12.76,12.46-20.73,30.98-37.34,37.5c-7.91,3.11-16.67,2.94-25.16,2.54c-48.64-2.31-96.98-10.96-143.4-25.66
		c-12.45-3.94-29.6-6.52-35.4,5.18c39.52-0.09,76.96,16.07,114.81,27.44c37.85,11.37,80.61,17.6,115.47-1.03
		c6.27,17.11-14.98,32.25-33.18,33.07c-18.21,0.83-37.49-5-54.1,2.48c-4.62,2.08-8.95,5.34-11,9.96
		c-6.16,13.91,10.65,26.66,24.94,31.9c-2.14-15.43,17.41-24.77,32.97-24.09c15.56,0.68,32.27,5.85,45.97-1.56
		c3.32-1.8,6.35-4.3,10.01-5.22c12.44-3.14,21.14,15.82,13.68,26.26c-7.46,10.43-22.57,12.02-35.1,9.25
		c-2.37,9.99,13.34,13.33,22.99,9.82c9.64-3.52,23.03-7.61,28.03,1.35c2.95,5.29,0.4,11.89-2.58,17.16
		c-15.59,27.48-43.54,47.64-74.54,53.75c-31,6.12-64.51-1.92-89.37-21.42c-2.75,12.71,5.42,25.77,16.39,32.76
		c10.97,6.98,24.21,9.18,37.07,11.13c28.87,4.36,58.9,8.08,86.84-0.38c8.02-2.43,16.43-5.87,24.48-3.55
		c12.64,3.64,17.14,18.66,23.9,29.94c10.82,18.06,30.94,28.96,51.53,33.36c20.59,4.39,41.91,3.08,62.92,1.75"/>
</g>
<g id="mancha_5">
	<path class="st5" d="M-2196.2-225.89c26.72,12.48,56.51,17.62,82.73,31.12c19.54,10.06,38.41,28.6,35.89,50.43
		c-1.9,16.46-15.43,29.37-19.37,45.46c-5.14,21.04,7.36,42.75,23.54,57.15s36.09,24,52.84,37.74s30.8,33.98,28.21,55.48
		c-10.69-12.68-21.59-25.55-35.5-34.58c-13.91-9.03-31.52-13.82-47.33-8.79c-8.48,2.7-16.17,8.08-25.01,9.05
		c-15.67,1.72-29.76-11.41-35.15-26.23c-5.39-14.82-4.34-31.06-4.38-46.83c-0.04-15.77-1.57-32.51-11.01-45.15
		c-22.11-29.62-72.46-20.12-98.5-46.35c-8.18-8.24-13-19.2-20.21-28.3c-12.94-16.33-33.88-26-54.7-25.25
		c-0.79-18.96-5.7-37.56-6.75-56.51c-1.05-18.95,2.44-39.44,15.7-53.02c21.58-22.11,62.88-16.58,71.41,14.39
		c3.35,12.18-0.77,23.26,5.48,35.44C-2230.23-244.96-2211.62-233.09-2196.2-225.89z"/>
</g>
<g id="mancha_4">
	<path class="st5" d="M-2334.87,79.85c14.19-4.66,28.74-8.23,43.48-10.66c33.58-5.55,73.86-2.34,93.05,25.77
		c6.44,9.44,9.67,20.67,15.13,30.71s14.34,19.48,25.73,20.47c9.49,0.83,18.39-4.37,26.11-9.95c18.54-13.38,35.28-30.42,57.04-37.43
		c21.76-7.01,51.04,1.43,56.12,23.72c-11.14-4.37-22.88-8.82-34.75-7.29c-11.87,1.53-23.6,11.29-22.85,23.23
		c0.32,5.17,2.85,9.92,5.36,14.46c5,9.02,10.34,19.03,8.14,29.1c-1.42,6.48-5.79,11.9-8.04,18.14c-5.9,16.34,6.62,36.55,23.88,38.55
		c17.26,2,34.07-14.81,32.07-32.06c4.73-9.77,21.73-2.22,22.2,8.63c0.47,10.85-8.32,19.6-16.48,26.76
		c-13,11.39-26.69,22.89-43.28,27.74c-16.58,4.86-36.9,1.27-46.77-12.91c-7.32-10.5-7.54-24.26-6.88-37.05
		c0.25-4.88,0.31-10.48-3.33-13.75c-2.49-2.24-6.06-2.7-9.39-3.07c-17.82-1.94-40.35-1.41-47.94,14.83
		c-15.23-10.41-26.66-26.24-31.74-43.97c-16.1-11.93-40.4,6.93-40.4,26.97c0,20.04,14.96,36.74,30.23,49.72
		c43.18,36.71,96.7,61.13,152.73,69.69c6.33,0.97,13.12,1.92,17.9,6.19s5.89,13.17,0.44,16.55c-1.49,0.93-3.26,1.32-4.99,1.63
		c-65.22,11.84-121.53-57.95-187.75-54.9c-4.03,0.19-8.25,0.72-11.54,3.07c-8.49,6.07-5.05,20.53,3.55,26.44
		c8.6,5.91,19.73,6.03,30.13,6.85c10.4,0.82,21.86,3.2,27.93,11.68c-19.01,2.6-37.84,6.52-56.31,11.71
		c-6.67,1.88-13.62,4.11-18.38,9.16c-6.41,6.8-7.31,16.99-7.55,26.34c-0.65,25.68,1.11,51.42,5.26,76.77
		c0.8,4.92,1.67,10.14-0.25,14.74c-2.15,5.15-7.27,8.32-12.08,11.15c-14.25,8.37-28.5,16.75-42.76,25.12
		c-1.96-115.36-7.82-233-9.78-348.36C-2322.12,137.61-2322.22,103.44-2334.87,79.85z"/>
</g>
<g id="mancha_3">
	<path class="st5" d="M-2344,787.5c37.14-38.66,111.39-121.32,164.18-130.71c26.82-4.77,54.43-5.25,80.72-12.38
		c26.3-7.12,52.29-22.58,62.91-47.67c7.92-18.71,6.29-40.16,12.48-59.5c6.64-20.74,22.62-38.29,42.65-46.85
		c10.54-4.5,22.19-6.68,31.76-12.99c20.73-13.68,25.35-41.6,28.09-66.29c1.75,18.19,3.48,36.71-0.33,54.58
		c-3.81,17.87-14.1,35.31-30.61,43.14c-10.68,5.07-26.42,10.83-23.39,22.26c16.06,10.9,39.17,3.81,52.45-10.35
		c13.28-14.16,19.24-33.45,25.3-51.89c6.06-18.44,13.19-37.59,27.9-50.25c-8.94,36.5-17.89,73.01-26.83,109.51
		c-4.2,17.12-10.33,36.61-26.65,43.29c-9.16,3.75-19.48,2.44-29.34,3.18c-9.87,0.74-20.92,4.88-24.06,14.26
		c-1.56,4.68-0.81,9.82,0.52,14.58c7.54,27.07,34.83,47.27,62.92,46.58c1.1,28.1-42.94,38.44-47.84,66.13
		c-4.46,25.15,26.54,47.27,20.27,72.04c-3.45,13.64-17.43,22.67-20.92,36.3"/>
</g>
<g id="manchita_15">
	<path class="st2" d="M-910.44,688.86c-4.64-6.4-14.73-7.04-21.28-2.61c-6.55,4.43-9.76,12.62-10.06,20.51
		c-0.32,8.43,2.35,16.95,7.41,23.7c8.99,11.98,63.16,28.38,48.54,6.92c-5.27-7.73-23.56-1.68-30.36-13.79
		C-922.14,712.99-916.21,698.18-910.44,688.86z"/>
</g>
<g id="manchita_14">
	<path class="st2" d="M-494.75,579.34c-17.11-5.39-31.73-18.23-39.29-34.49c22.35-4.45,46.9,9.62,54.36,31.15
		c-3.44,0.17-6.88,0.34-10.32,0.5"/>
</g>
<g id="manchita_13">
	<path class="st2" d="M-1919.89,768.95c-3.9-10.46-7.83-21.06-8.92-32.17c-1.1-11.11,0.94-22.96,7.92-31.67
		c9.79-12.22,26.94-15.74,42.59-15.47c6.48,0.11,14.9,2.7,14.81,9.18c-0.03,2.38-1.35,4.56-2.86,6.4
		c-8.77,10.71-25.43,15.47-28.74,28.91c-2.48,10.07,4,19.89,9.57,28.63c6.87,10.78,12.8,22.17,17.7,33.97
		c1.17,2.8,2.29,5.85,1.61,8.81c-2.38,10.4-25.09,8.98-32.06,5.09C-1911.77,803.09-1914.84,782.51-1919.89,768.95z"/>
</g>
<g id="manchita_12">
	<path class="st2" d="M-2266.77-141.38c2.4,4.43,4.26,9.26,7.64,13c5.62,6.22,14.42,8.35,22.74,9.34
		c8.32,0.99,16.97,1.21,24.56,4.75c7.59,3.55,13.9,11.7,12.06,19.87c-16.45,6.29-35.69,4.8-50.97-3.95
		c-13.81-7.9-25.69-21.71-41.6-21.87c-15.21-0.15-20.47,2.42-26.55-13.03c-2.72-6.91-3.19-26.24,2.69-32.1
		C-2301.22-180.29-2273.96-154.67-2266.77-141.38z"/>
</g>
<g id="mancha_2">
	<path class="st5" d="M-338.5,681.4c-90.95-41.49-154.47-72.19-231.5-135.9c18,29,15.43,30.81,39.61,52.66
		c-18.19-1.55-36.38-3.1-54.57-4.66c-2.92-0.25-6.27-0.35-8.32,1.75c-1.61,1.66-1.87,4.17-2.04,6.47
		c-1.99,26.8-3.98,53.59-5.97,80.39c-0.67,8.98-1.75,18.87-8.37,24.98c-6.68,6.17-16.78,6.41-25.86,5.8
		c-13.59-0.91-30.5-6.22-31.75-19.79c-1.08-11.73,11-20.98,12.01-32.72c1.06-12.33-11.07-22.58-23.34-24.18
		c-12.27-1.6-24.41,3.02-35.99,7.39c-27.98,10.56-57.02,20.27-86.93,20s-61.22-12.2-77.84-37.06c-6.02-9.01-10.06-19.52-17.87-27.03
		c-10.83-10.42-26.74-13.1-41.61-15.29c14.03,9.03,24.06,24.06,27.02,40.48c1.86,10.36,1.23,21.71,7.05,30.47
		c5.58,8.41,15.73,12.31,25.23,15.73c22.14,7.96,44.54,15.98,67.92,18.6c10.64,1.2,21.89,1.41,31.09,6.88s14.89,18.71,8.28,27.13
		c-25.37,4.85-52.31,0.99-75.3-10.79c-8.93-4.58-17.51-10.39-27.38-12.21c-9.87-1.82-21.77,1.88-25.34,11.26
		c5.84,21.59,45.93,7.75,57.43,26.92c2.47,4.12,3.04,9.12,5.24,13.39c4.15,8.04,13.22,12.11,21.83,14.9
		c15.45,5.01,31.62,7.81,47.86,8.31c17.81,0.54,35.87-1.65,53.3,2.05c49.68,10.55,283.02,52.34,331.59,67.16"/>
</g>
<g id="mancha_1">
	<path class="st5" d="M-357.83-315.1c-41.6,21.06-83.19,42.12-124.79,63.19c-7.84,3.97-15.97,8.02-24.75,8.47
		c-14.75,0.76-27.93-8.65-42.24-12.32c-26.45-6.79-56.75,9.28-65.98,34.99c-5.7,15.88-4.24,34.44-13.79,48.35
		c-10.05,14.63-29.76,19.68-47.44,18.14c-17.69-1.54-34.41-8.39-51.61-12.78c-35.42-9.03-73.47-7.42-108,4.56
		c30.01,2.73,60.01,5.47,90.02,8.2c6.32,0.58,12.93,1.25,18.25,4.71c5.32,3.46,8.79,10.67,5.95,16.34
		c-22.02,8.27-48.93-10.52-69.22,1.38c-15.75,9.23-17.36,31.89-11.58,49.21c5.78,17.32,16.89,32.76,20.49,50.66
		c4.29-9.32,4.24-20.54-0.15-29.81c-3.47-7.33-9.53-13.68-10.63-21.71c-2.03-14.73,13.85-26.23,28.64-27.83
		c14.78-1.59,29.66,2.88,44.48,1.79c14.04-1.03,27.18-6.95,40.6-11.2c13.42-4.25,28.39-6.78,41.3-1.17
		c12.91,5.61,21.78,22.07,14.95,34.38c-18.5,2.36-36.32,9.87-50.93,21.47c6.76,13.18,26.96,9.67,39.06,1.11s23.95-20.84,38.71-19.56
		c14.75,1.28,25.01,16.7,25.74,31.49c0.73,14.78-5.61,28.9-11.91,42.29c-2.79,5.92-5.78,12.05-10.97,16.03
		c-6.27,4.8-14.59,5.63-22.34,7.1c-15.29,2.91-30.32,9.28-41.16,20.45s-16.87,27.62-13.18,42.74
		c-1.83-20.37,23.17-31.99,43.59-33.26c20.41-1.27,44.22,0.19,57.45-15.4c19.16-22.57,1.22-64.91,25.01-82.53
		c11.53-8.53,29.97-5.22,37.81,6.78c7.84,12.01,3.45,30.23-9,37.35c13.22-18.73,38-28.51,60.45-23.85
		c17.02,3.53,31.58,14.28,47.82,20.5c16.24,6.22,37.43,6.5,48.08-7.25"/>
</g>
<g id="manchita_11">
	<path class="st2" d="M-718.01-97.46c-15.27-0.04-30.55-0.08-45.82-0.12c-1.68,0-3.54,0.06-4.75,1.23c-1.55,1.49-1.28,4-0.89,6.12
		c2.53,13.76,5.06,27.51,7.6,41.27c0.78,4.22,1.67,8.69,4.6,11.84c4.91,5.28,13.27,4.76,20.42,3.83c2.94-0.38,6.23-0.96,7.96-3.37
		c1.14-1.58,1.35-3.63,1.35-5.57c0.02-6.08-1.6-12.07-1.69-18.15c-0.09-6.08,1.81-12.77,6.98-15.97c6.22-3.85,16.99-3.3,17.89-10.56
		c-5.92-2.08-11.84-4.16-17.77-6.24"/>
</g>
<g id="Capa_13" class="st1">
</g>
<g id="Capa_6" class="st1">
</g>
<g id="manchita_10">
	<path class="st2" d="M-2098.54,615.5c6.44-0.36,13.14-3.81,15.42-9.85c2.65-7.03-1.28-14.6-3.81-21.68
		c-2.53-7.08-2.65-16.85,4.13-20.09c2.67-1.28,5.76-1.14,8.71-1.1c9.96,0.13,21.37-2.05,26.4-10.64c5.14-8.77,0.74-20.76-7.41-26.83
		c-8.15-6.07-18.88-7.41-29.04-7.21c-9.86,0.19-19.82,0.83-29.59,1.1c5.47,29.85-18.86,35.49-27.08,58.36
		C-2149.32,601.24-2120.77,616.75-2098.54,615.5z"/>
</g>
<g id="manchita_9">
	<path class="st2" d="M-2148.29,513.34c9.01,3.26,12.84,15.05,9.52,24.03c-3.32,8.99-12.02,15.1-21.16,17.95
		c-6,1.88-13.19,2.37-17.99-1.71c-3.66-3.11-5.04-8.26-4.86-13.06c0.57-14.82,16.22-27.15,30.76-24.22"/>
</g>
<g id="manchita_8">
	<path class="st2" d="M-2159.51,98.74c-2.47,4.03-1.2,9.66,2.18,12.96c3.39,3.31,8.4,4.53,13.12,4.2
		c11.36-0.79,21.63-11.52,20.32-22.84s-15.68-19.4-25.38-13.43c-2.96,5.01-3.89,11.17-2.56,16.82"/>
</g>
<g id="manchita_7">
	<path class="st2" d="M-2022.41,150.8c-1.5-3.08-6.06-3.48-8.97-1.66c-2.91,1.82-4.53,5.09-5.94,8.21
		c-3.26,7.18-6.19,14.51-8.8,21.95c-2.1,6-3.64,13.61,1.01,17.95c5.01,4.69,13.3,1.81,18.68-2.45s10.4-9.93,17.22-10.65
		c6.32-0.66,12.66,3.23,18.83,1.73c7.1-1.74,10.78-10.63,8.52-17.59c-2.26-6.95-8.95-11.73-16-13.68s-14.5-1.53-21.8-1.1"/>
</g>
<g id="manchita_6">
	<path class="st2" d="M-427.2-8.51c-11.12-5.13-22.55-10.35-34.76-11.24c-12.22-0.89-25.58,3.47-32.12,13.83
		c-0.63,0.99-1.19,2.06-1.39,3.21c-0.63,3.73,2.9,7.08,6.6,7.86s7.5-0.24,11.23-0.89c7.96-1.39,16.39-1.05,23.78,2.22
		c7.95,3.53,14.06,10.1,20.97,15.38c9.96,7.6,29.93,13.39,34.03-3.98C-395.11,2.04-416.19-3.43-427.2-8.51z"/>
</g>
<g id="manchita_5">
	<path class="st2" d="M-608.87,52.97c-9.21,1.13-18.54,2.29-27.11,5.84c-11.83,4.89-21.36,13.95-30.59,22.81
		c-4.14,3.98-8.66,9.11-7.31,14.69c6.05,2.35,12.25,4.73,18.73,4.93c6.49,0.21,13.43-2.17,17.03-7.58c2.34-3.52,3.2-8.13,6.52-10.75
		c2.34-1.85,5.46-2.32,8.42-2.69c21.51-2.71,43.22-3.86,64.9-3.43c17.32,0.34,35.34-15.44,15.03-28.26
		C-557.56,39.51-593.57,51.09-608.87,52.97z"/>
</g>
<g id="manchita_4">
	<path class="st2" d="M-643.83-203.2c-0.01,2.49-0.22,5.24-2.01,6.97c-1.53,1.49-3.82,1.81-5.95,2c-28.53,2.62-57-3.75-85.44-7.24
		c-28.44-3.49-58.77-3.76-83.98,9.86c-6.86,3.71-14.24,8.56-21.81,6.66c-12.61-3.17-12.81-23.12-2.79-31.4
		c10.02-8.28,24.32-8.13,37.31-7.56c36.29,1.59,72.59,3.19,108.88,4.78c3.8,0.17,7.91,0.25,11.05-1.89
		c8.24-5.62,2.24-18.34,2.89-28.3c1.51-23.43,52.21-37.96,64.89-19.41C-646.06-251.45-643.68-231.46-643.83-203.2z"/>
</g>
<g id="manchita_3">
	<path class="st2" d="M-1893.73,643.22c4.63,9.77,2.77,22.26-4.51,30.25c-4.66,5.12-11.72,9.46-11.79,16.38
		c14.56,6.48,33.73,7.78,44.59-3.88c7.99-8.57,8.99-21.33,9.57-33.04c0.51-10.36,0.39-22.28-7.48-29.04
		c-5.7-4.89-13.8-5.5-21.3-5.88c-6.31-0.32-26.53-2.37-27.04,7.74C-1911.89,629.72-1896.19,638.04-1893.73,643.22z"/>
</g>
<g id="manchita_2">
	<path class="st2" d="M-2029.97-81.12c0.06,3.21-0.25,6.61,1.26,9.44c1.36,2.54,3.96,4.14,6.52,5.48
		c15.46,8.07,33.94,10.92,46.9,22.59c1.51,1.36,2.99,2.93,3.46,4.91c1.53,6.4-7.41,9.81-14,9.65c-28.69-0.68-73.35-19.92-85.02-49
		c-4.23-10.54-3.46-35,10.35-38.84C-2044.16-121.43-2030.19-93.04-2029.97-81.12z"/>
</g>
<g id="manchita_1">
	<path class="st2" d="M-607.23,624.18c-0.07,8.81-0.25,18.06-4.56,25.74c-4.32,7.68-14.25,12.98-22.17,9.12
		c-9.78-4.76-9.86-18.44-8.55-29.24c1.17-9.66,2.21-19.82-1.48-28.83c-3.16-7.71-9.42-13.65-14.05-20.58
		c-1.69-2.53-3.21-5.42-2.92-8.45c0.69-7.14,9.9-9.37,17.06-9.78c7.49-0.42,16.06-0.43,21.14,5.09c5.01,5.46,4.36,13.8,4.75,21.21
		c0.67,12.65,5.43,25.05,13.4,34.9"/>
</g>
</svg>
